# AST/ASF file generated using VICON BodyLanguage
# -----------------------------------------------
:version 1.10
:name VICON
:units
  mass 1.0
  length 0.45
  angle deg
:documentation
   .ast/.asf automatically generated from VICON data using
   VICON BodyBuilder and BodyLanguage model FoxedUp or BRILLIANT.MOD
:root
   order TX TY TZ RX RY RZ
   axis XYZ
   position 0 0 0  
   orientation 0 0 0 
:bonedata
  begin
     id 1 
     name lhipjoint
     direction 0.650112 -0.723553 0.232005 
     length 2.45805 
     axis 0 0 0  XYZ
  end
  begin
     id 2 
     name lfemur
     direction 0.34202 -0.939693 0  
     length 7.00073  
     axis 0 0 20  XYZ
    dof rx ry rz
    limits (-160.0 20.0)
           (-70.0 70.0)
           (-60.0 70.0)
  end
  begin
     id 3 
     name ltibia
     direction 0.34202 -0.939693 0   
     length 7.8748   
     axis 0 0 20   XYZ
    dof rx
    limits (-10.0 170.0)
  end
  begin
     id 4 
     name lfoot
     direction 0.0542825 -0.14914 0.987325   
     length 1.75978   
     axis -90 7.62852e-016 20   XYZ
    dof rx rz
    limits (-45.0 90.0)
           (-70.0 20.0)
  end
  begin
     id 5 
     name ltoes
     direction 1.53509e-011 -4.21906e-011 1   
     length 0.893912   
     axis -90 7.62852e-016 20   XYZ
    dof rx
    limits (-90.0 20.0)
  end
  begin
     id 6 
     name rhipjoint
     direction -0.637897 -0.733345 0.235145   
     length 2.42522  
     axis 0 0 0  XYZ 
  end
  begin
     id 7 
     name rfemur
     direction -0.34202 -0.939693 0   
     length 7.02549   
     axis 0 0 -20   XYZ
    dof rx ry rz
    limits (-160.0 20.0)
           (-70.0 70.0)
           (-70.0 60.0)
  end
  begin
     id 8 
     name rtibia
     direction -0.34202 -0.939693 0   
     length 7.71512   
     axis 0 0 -20   XYZ
    dof rx
    limits (-10.0 170.0)
 end
 begin
     id 9 
     name rfoot
     direction -0.0822618 -0.226012 0.970645   
     length 1.90014  
     axis -90 -7.62852e-016 -20   XYZ
    dof rx rz
    limits (-45.0 90.0)
           (-20.0 70.0)
  end
  begin
     id 10 
     name rtoes
     direction -1.53542e-011 -4.21872e-011 1   
     length 0.957341   
     axis -90 -7.62852e-016 -20   XYZ
    dof rx
    limits (-90.0 20.0)
  end
  begin
     id 11 
     name lowerback
     direction -0.0022947 0.999774 -0.0211557   
     length 1.89909   
     axis 0 0 0   XYZ
    dof rx ry rz
    limits (-20.0 45.0)
           (-30.0 30.0)
           (-30.0 30.0)
  end
  begin
     id 12 
     name upperback
     direction 0.0107737 0.998635 0.0511027   
     length 1.8853   
     axis 0 0 0   XYZ
    dof rx ry rz
    limits (-20.0 45.0)
           (-30.0 30.0)
           (-30.0 30.0)
  end
  begin
     id 13 
     name thorax
     direction 0.011824 0.998136 0.0598754   
     length 1.88911   
     axis 0 0 0   XYZ
    dof rx ry rz
    limits (-20.0 45.0)
           (-30.0 30.0)
           (-30.0 30.0)
  end
  begin
     id 14 
     name lowerneck
     direction -0.0685355 0.990319 0.120714   
     length 1.91222   
     axis 0 0 0   XYZ
    dof rx ry rz
    limits (-20.0 45.0)
           (-30.0 30.0)
           (-30.0 30.0)
  end
  begin
     id 15 
     name upperneck
     direction 0.0886204 0.955665 -0.280805   
     length 1.92526   
     axis 0 0 0   XYZ
    dof rx ry rz
    limits (-20.0 45.0)
           (-30.0 30.0)
           (-30.0 30.0)
  end
  begin
     id 16
     name head
     direction 0.0233423 0.993502 -0.111393  
     length 1.96056  
     axis 0 0 0   XYZ
    dof rx ry rz
    limits (-20.0 45.0)
           (-30.0 30.0)
           (-30.0 30.0)
  end
  begin
     id 17 
     name lclavicle
     direction 0.941873 0.32922 0.0670041  
     length 3.31705  
     axis 0 0 0   XYZ
    dof ry rz
    limits (-20.0 10.0)
           (0.0 20.0)
  end
  begin
     id 18 
     name lhumerus
     direction 1 -4.4898e-011 3.38707e-028   
     length 5.29277   
     axis 180 -30 -90   XYZ
    dof rx ry rz
    limits (-60.0 90.0)
           (-90.0 90.0)
           (-90.0 90.0)
  end
  begin
     id 19
     name lradius
     direction 1 -4.48952e-011 1.63213e-028   
     length 2.85226   
     axis 180 -30 -90   XYZ
    dof rx
    limits (-10.0 170.0)
  end
  begin
     id 20
     name lwrist
     direction 1 -4.49001e-011 1.27856e-027   
     length 1.42613   
     axis -1.61767e-015 90 90   XYZ
    dof ry
    limits (-180.0 0.0)
 end
  begin
     id 21 
     name lhand
     direction 1 -4.48976e-011 2.55931e-027   
     length 0.602097   
     axis -1.63363e-015 90 90   XYZ
    dof rx rz
    limits (-90.0 90.0)
           (-45.0 45.0)
  end
  begin
     id 22 
     name lfingers
     direction 1 -4.48986e-011 5.11684e-027   
     length 0.485426   
     axis -3.26723e-015 90 90   XYZ
    dof rx
    limits (0.0 90.0)
  end
  begin
     id 23
     name lthumb
     direction 0.707107 -6.34915e-011 0.707107   
     length 0.696978   
     axis -90 45 -2.25915e-014   XYZ
    dof rx rz
    limits (-45.0 45.0)
           (-45.0 45.0)
  end
  begin
     id 24 
     name rclavicle
     direction -0.939974 0.327078 0.0973096   
     length 3.10337  
     axis 0 0 0   XYZ 
    dof ry rz
    limits (-10.0 20.0)
           (-20.0 0.0)
  end
  begin
     id 25 
     name rhumerus
     direction -1 -4.48975e-011 1.83745e-027  
     length 5.13304   
     axis 180 30 90   XYZ
    dof rx ry rz
    limits (-90.0 60.0)
           (-90.0 90.0)
           (-90.0 90.0)
  end
  begin
     id 26 
     name rradius
     direction -1 -4.48977e-011 7.1775e-029   
     length 2.74305   
     axis 180 30 90   XYZ
    dof rx
    limits (-10.0 170.0)
  end
  begin
     id 27 
     name rwrist
     direction -1 -4.48977e-011 1.27963e-027   
     length 1.37152   
     axis -1.61767e-015 -90 -90   XYZ
    dof ry
    limits (-180.0 0.0)
  end
  begin
     id 28
     name rhand
     direction -1 -4.4888e-011 2.56782e-027   
     length 0.767976   
     axis -1.63363e-015 -90 -90   XYZ
    dof rx rz
    limits (-90.0 90.0)
           (-45.0 45.0)
  end
  begin
     id 29
     name rfingers
     direction -1 -4.48947e-011 5.12384e-027   
     length 0.619162   
     axis -3.26723e-015 -90 -90   XYZ
    dof rx
    limits (0.0 90.0)
  end
  begin
     id 30
     name rthumb
     direction -0.707107 -6.34857e-011 0.707107   
     length 0.888997   
     axis -90 -45 2.25915e-014   XYZ
    dof rx rz
    limits (-45.0 45.0)
           (-45.0 45.0)
  end
:hierarchy
  begin
    root lhipjoint rhipjoint lowerback
    lhipjoint lfemur
    lfemur ltibia
    ltibia lfoot
    lfoot ltoes
    rhipjoint rfemur
    rfemur rtibia
    rtibia rfoot
    rfoot rtoes
    lowerback upperback
    upperback thorax
    thorax lowerneck lclavicle rclavicle
    lowerneck upperneck
    upperneck head
    lclavicle lhumerus
    lhumerus lradius
    lradius lwrist
    lwrist lhand lthumb
    lhand lfingers
    rclavicle rhumerus
    rhumerus rradius
    rradius rwrist
    rwrist rhand rthumb
    rhand rfingers
  end

#!OML:ASF F:\VICON\USERDATA\INSTALL\rory3\rory3.ASF
:FULLY-SPECIFIED
:DEGREES
886
root 0.211377 17.2492 -0.944291 36.5393 14.226 0.860902
lowerback 25.4781 1.20542 0.196625
upperback 5.70102 1.83114 1.9899
thorax -7.88943 0.894462 1.50165
lowerneck -3.04411 -10.2846 -17.8989
upperneck -14.2846 -11.7857 27.1289
head -0.491582 -6.20508 11.3449
rclavicle -7.95139e-016 -2.26615e-014
rhumerus -57.9698 -25.1027 -7.78862
rradius 38.649
rwrist 45.6618
rhand -21.077 15.8329
rfingers 7.12502
rthumb 5.29999 -14.0808
lclavicle -7.95139e-016 -2.26615e-014
lhumerus -37.3841 -14.7527 30.1752
lradius 46.6398
lwrist 24.2832
lhand -11.0515 25.9047
lfingers 7.12502
lthumb 14.9709 55.3436
rfemur -47.7276 0.285336 17.5716
rtibia 26.4467
rfoot -11.202 -18.3558
rtoes -20.2993
lfemur -53.5003 -14.4962 -6.16623
ltibia 24.8568
lfoot -8.57243 2.5021
ltoes -16.7911
887
root 0.227232 17.2433 -0.953917 36.3913 14.2321 0.888658
lowerback 25.445 1.11873 0.400257
upperback 5.84214 1.78081 2.10063
thorax -7.71212 0.867955 1.52362
lowerneck -3.3195 -10.2997 -17.6597
upperneck -14.2675 -11.7952 26.6877
head -0.500436 -6.18622 11.1303
rclavicle -1.82882e-014 -1.11319e-014
rhumerus -57.3161 -23.8234 -9.42953
rradius 40.3451
rwrist 44.5741
rhand -21.1405 16.2257
rfingers 7.12502
rthumb 5.2387 -13.6896
lclavicle -1.82882e-014 -1.11319e-014
lhumerus -37.5721 -16.0379 30.7234
lradius 47.7293
lwrist 21.8701
lhand -11.8313 25.0277
lfingers 7.12502
lthumb 14.2196 54.521
rfemur -47.7965 -0.00140083 17.65
rtibia 26.8945
rfoot -11.4865 -18.152
rtoes -20.0343
lfemur -53.5242 -14.4157 -6.43821
ltibia 25.2085
lfoot -8.64934 2.2484
ltoes -16.6233
888
root 0.23961 17.2336 -0.964305 36.277 14.0132 1.01127
lowerback 25.4043 1.14245 0.310286
upperback 5.97678 1.7925 2.17844
thorax -7.5476 0.875232 1.65847
lowerneck -3.48419 -10.3301 -17.6972
upperneck -14.2224 -11.8286 26.5758
head -0.461662 -6.18601 11.082
rclavicle 2.46493e-014 4.09496e-014
rhumerus -56.7511 -22.4262 -10.9196
rradius 42.0857
rwrist 43.7264
rhand -21.2846 16.702
rfingers 7.12502
rthumb 5.0996 -13.2166
lclavicle 2.46493e-014 4.09496e-014
lhumerus -37.7607 -17.4696 31.2884
lradius 48.9712
lwrist 19.6453
lhand -12.4951 24.5592
lfingers 7.12502
lthumb 13.5798 54.0963
rfemur -47.95 -0.0937876 17.4566
rtibia 27.3447
rfoot -11.761 -17.9427
rtoes -19.7643
lfemur -53.5561 -14.3116 -6.83797
ltibia 25.6089
lfoot -8.83985 2.2435
ltoes -17.0799
889
root 0.246183 17.2192 -0.973422 36.1743 13.7085 1.09185
lowerback 25.3565 1.23887 0.080005
upperback 6.06362 1.86375 2.27823
thorax -7.43969 0.912394 1.87954
lowerneck -3.2705 -10.2983 -17.9953
upperneck -14.3401 -11.7863 26.7728
head -0.499298 -6.1754 11.2263
rclavicle -5.56597e-015 -7.95139e-016
rhumerus -56.2233 -20.7819 -12.3106
rradius 43.8311
rwrist 43.0263
rhand -21.5573 17.1273
rfingers 7.12502
rthumb 4.83628 -12.7975
lclavicle -5.56597e-015 -7.95139e-016
lhumerus -38.0054 -19.1635 31.9296
lradius 50.1457
lwrist 17.4964
lhand -13.2693 23.9987
lfingers 7.12502
lthumb 12.8336 53.5842
rfemur -48.1588 -0.0408152 17.2446
rtibia 27.8135
rfoot -11.9054 -17.8154
rtoes -20.0093
lfemur -53.6132 -14.162 -7.16556
ltibia 26.0242
lfoot -9.06876 2.27869
ltoes -17.564
890
root 0.255212 17.2044 -0.983348 36.0674 13.5658 1.04584
lowerback 25.3142 1.25742 0.0797434
upperback 6.12116 1.89736 2.40915
thorax -7.36037 0.928377 2.01422
lowerneck -3.08562 -10.2583 -18.0117
upperneck -14.483 -11.7419 26.6653
head -0.590818 -6.16383 11.215
rclavicle -3.02153e-014 1.35174e-014
rhumerus -55.717 -19.2022 -13.7139
rradius 45.6214
rwrist 42.2165
rhand -22.2757 17.4131
rfingers 7.12502
rthumb 4.14259 -12.5263
lclavicle -3.02153e-014 1.35174e-014
lhumerus -38.3312 -20.8764 32.5607
lradius 51.3827
lwrist 15.3243
lhand -14.1996 23.5367
lfingers 7.12502
lthumb 11.9366 53.1764
rfemur -48.3838 -0.103978 17.2701
rtibia 28.3112
rfoot -12.1054 -17.6525
rtoes -20.1487
lfemur -53.7316 -13.9885 -7.33555
ltibia 26.4647
lfoot -9.12255 2.09755
ltoes -17.3833
891
root 0.26636 17.1928 -0.995928 35.9153 13.4732 1.00894
lowerback 25.3284 1.24285 0.187864
upperback 6.21347 1.91291 2.5071
thorax -7.26593 0.934001 2.05539
lowerneck -3.06466 -10.2642 -17.8936
upperneck -14.5376 -11.7589 26.435
head -0.638022 -6.1721 11.116
rclavicle -2.22639e-014 -2.78299e-014
rhumerus -55.3267 -17.9332 -14.9794
rradius 47.3891
rwrist 41.6056
rhand -23.0955 17.6795
rfingers 7.12502
rthumb 3.35085 -12.2739
lclavicle -2.22639e-014 -2.78299e-014
lhumerus -38.5326 -22.5131 33.0974
lradius 52.5913
lwrist 13.0094
lhand -15.3151 22.8662
lfingers 7.12502
lthumb 10.8609 52.5653
rfemur -48.5412 -0.222432 17.3163
rtibia 28.8083
rfoot -12.4142 -17.4395
rtoes -19.5775
lfemur -53.828 -13.8412 -7.51592
ltibia 26.9341
lfoot -9.23034 1.77417
ltoes -16.8088
